<?xml version="1.0" standalone="no"?>
<!DOCTYPE svg PUBLIC "-//W3C//DTD SVG 20010904//EN"
 "http://www.w3.org/TR/2001/REC-SVG-20010904/DTD/svg10.dtd">
<svg version="1.0" xmlns="http://www.w3.org/2000/svg"
 width="900.000000pt" height="900.000000pt" viewBox="0 0 900.000000 900.000000"
 preserveAspectRatio="xMidYMid meet">

<g transform="translate(0.000000,900.000000) scale(0.100000,-0.100000)"
fill="#000000" stroke="none">
<path d="M0 4795 l0 -1155 575 0 575 0 0 865 0 865 290 0 290 0 0 -865 0 -865
290 0 290 0 0 1155 0 1155 -1155 0 -1155 0 0 -1155z"/>
<path d="M2770 4505 l0 -1445 575 0 575 0 0 290 0 290 580 0 580 0 0 1155 0
1155 -1155 0 -1155 0 0 -1445z m1730 290 l0 -575 -290 0 -290 0 0 575 0 575
290 0 290 0 0 -575z"/>
<path d="M5540 4795 l0 -1155 575 0 575 0 0 865 0 865 290 0 290 0 0 -865 0
-865 290 0 290 0 0 865 0 865 285 0 285 0 0 -865 0 -865 290 0 290 0 0 1155 0
1155 -1730 0 -1730 0 0 -1155z"/>
</g>
</svg>
