<?xml version="1.0" standalone="no"?>
<!DOCTYPE svg PUBLIC "-//W3C//DTD SVG 20010904//EN"
 "http://www.w3.org/TR/2001/REC-SVG-20010904/DTD/svg10.dtd">
<svg version="1.0" xmlns="http://www.w3.org/2000/svg"
 width="500.000000pt" height="500.000000pt" viewBox="0 0 500.000000 500.000000"
 preserveAspectRatio="xMidYMid meet">

<g transform="translate(0.000000,500.000000) scale(0.100000,-0.100000)"
fill="#000000" stroke="none">
<path d="M1761 3045 c-34 -40 -40 -79 -17 -124 18 -34 54 -51 107 -51 34 0 48
7 76 35 32 32 35 39 30 78 -8 61 -51 97 -116 97 -43 0 -52 -4 -80 -35z"/>
<path d="M2622 3055 c-36 -30 -47 -75 -28 -120 21 -50 56 -69 118 -63 42 4 56
11 75 34 38 48 23 137 -26 164 -37 19 -107 12 -139 -15z"/>
<path d="M3559 3042 c-68 -18 -148 -68 -181 -113 -10 -14 -25 -43 -33 -65 -14
-38 -14 -36 -15 69 l0 107 -105 0 -104 0 -3 -342 c-3 -324 -4 -345 -23 -378
-30 -51 -77 -72 -146 -66 -31 3 -63 8 -71 11 -17 7 -22 -10 -33 -112 l-7 -62
38 -7 c22 -5 82 -8 134 -7 112 0 176 23 233 81 71 73 81 111 87 347 4 116 7
203 8 194 4 -31 59 -100 106 -134 27 -19 83 -48 125 -65 151 -62 181 -86 181
-147 0 -98 -141 -128 -322 -69 l-68 22 -16 -55 c-9 -31 -17 -71 -18 -90 -1
-32 2 -35 54 -54 46 -17 80 -21 200 -21 131 -1 151 1 204 23 207 83 253 343
82 470 -28 21 -101 60 -162 85 -131 55 -157 77 -152 132 2 31 10 43 38 62 32
22 42 24 125 19 51 -3 107 -12 129 -22 21 -9 40 -15 41 -13 4 4 45 158 45 169
0 14 -130 42 -215 45 -65 3 -108 -1 -156 -14z"/>
<path d="M1185 3043 c-16 -2 -49 -6 -72 -9 l-43 -5 0 -470 0 -469 105 0 105 0
0 170 0 170 93 0 c129 0 204 23 283 86 23 19 51 53 63 76 l21 43 0 -272 0
-273 203 0 202 0 60 114 61 115 42 -82 c23 -45 51 -97 62 -114 l20 -33 210 0
210 0 0 345 0 345 -207 0 -208 0 -55 -105 c-30 -58 -57 -105 -60 -105 -4 0
-34 50 -103 177 l-19 33 -199 0 c-151 0 -200 3 -203 13 -2 6 -9 30 -15 53 -25
94 -111 164 -235 190 -55 12 -246 16 -321 7z m296 -180 c38 -23 59 -64 59
-118 0 -100 -59 -149 -180 -150 l-75 0 -3 142 -3 142 33 4 c52 7 141 -4 169
-20z m569 -283 l92 -139 -92 -141 c-51 -77 -95 -140 -96 -140 -2 0 -4 126 -4
280 0 154 2 280 4 280 2 0 45 -63 96 -140z m540 -142 l0 -283 -50 80 c-28 44
-56 89 -63 99 -7 11 -24 38 -39 59 -16 22 -28 47 -28 55 0 8 37 67 81 131 45
63 84 121 86 128 3 7 7 13 9 13 2 0 4 -127 4 -282z"/>
</g>
</svg>
